<svg xmlns="http://www.w3.org/2000/svg" viewBox="0 0 1060 300" width="1060" height="300" role="img" aria-label="Katus Ranch, Angus Seedstock">
<rect width="1060" height="300" fill="#0B0B0D"/>
<g>
    <circle cx="150" cy="150" r="122" fill="#1A3EAF"/>
    <circle cx="150" cy="150" r="108.0" fill="#F4F5F7"/>
    <circle cx="150" cy="150" r="97.6" fill="none" stroke="#8B9199" stroke-width="2.20"/>
    <g transform="translate(42.64,42.64) scale(1.0736)"><g>
    <g fill="#0B0B0D">
      <path d="M141 74 C 157 71 170 79 177 95 C 168 105 152 104 143 97 Z"/>
      <path d="M59 74 C 43 71 30 79 23 95 C 32 105 48 104 57 97 Z"/>
      <path d="M100 36 C 123 36 141 46 147 63 C 151 78 150 92 146 104 C 143 114 138 121 133 127
               C 132 145 120 161 100 161 C 80 161 68 145 67 127 C 62 121 57 114 54 104
               C 50 92 49 78 53 63 C 59 46 77 36 100 36 Z"/>
    </g>
    <g fill="#1A3EAF">
      <path d="M69 92 C 76 86 87 87 91 94 C 84 99 73 99 69 92 Z"/>
      <path d="M131 92 C 124 86 113 87 109 94 C 116 99 127 99 131 92 Z"/>
      <ellipse cx="91" cy="137" rx="5" ry="3.2" transform="rotate(-20 91 137)"/>
      <ellipse cx="109" cy="137" rx="5" ry="3.2" transform="rotate(20 109 137)"/>
    </g></g></g></g>
<text x="330" y="140" text-anchor="start" font-family="Georgia, 'Times New Roman', 'Liberation Serif', serif" font-size="78"
      font-weight="700" letter-spacing="2.34" fill="#FFFFFF">KATUS RANCH</text>
    <rect x="330.0" y="164.2" width="688.0" height="3.5" fill="#8B9199"/>
    <text x="330.0" y="214.1" text-anchor="start" font-family="'Helvetica Neue', Helvetica, Arial, 'Liberation Sans', sans-serif" font-size="43.7"
      font-weight="600" letter-spacing="14.79" fill="#8FA6F0">ANGUS SEEDSTOCK</text>
</svg>
